<?xml version="1.0" encoding="utf-8"?>
<!-- Generator: Adobe Illustrator 19.0.0, SVG Export Plug-In . SVG Version: 6.00 Build 0)  -->
<svg version="1.1" id="layer" xmlns="http://www.w3.org/2000/svg" xmlns:xlink="http://www.w3.org/1999/xlink" x="0px" y="0px"
	 viewBox="-153 -46 652 652" style="enable-background:new -153 -46 652 652;" xml:space="preserve">
<style type="text/css">
	.st0{fill:#00A082;}
	.st1{fill:#FFCC1B;}
</style>
<path class="st0" d="M-132,304.1v-0.4c0-37.4,28.6-69,68.9-69c20,0,33.3,4.8,45.6,13.6c3,2.2,4.8,5.8,4.8,9.5
	c0,6.4-5.2,11.6-11.6,11.6c0,0,0,0,0,0c-3.1,0-5.4-1.3-7.2-2.7c-8.6-6.2-18-10.5-32.4-10.5c-24.7,0-43.4,21.6-43.4,47.1v0.4
	c0,27.5,18.1,47.8,45.4,47.8c12.6,0,24.1-4,32.2-10.1v-25H-56c-5.7,0-10.5-4.4-10.5-10.1c0-5.7,4.8-10.3,10.5-10.3h37.3
	c6.7,0,11.8,5.1,11.8,11.8v35.7c0,6.7-2.7,11.5-8.2,14.9c-11.5,7.7-27.5,14.5-47.5,14.5C-104.5,372.7-132,342.9-132,304.1 M14,241.6
	c0-6.3,5-11.4,11.3-11.5c0.1,0,0.1,0,0.2,0c6.5,0,11.6,5.1,11.6,11.5v118.2c0,6.5-5.1,11.5-11.6,11.5c-6.3,0-11.4-5-11.5-11.3
	c0-0.1,0-0.1,0-0.2V241.6z M55,320.7v-0.4c0-28.8,22.8-52.6,53.7-52.6s53.6,23.5,53.6,52.3v0.4c0,28.6-22.8,52.5-54,52.5
	C77.7,372.7,55,349.3,55,320.7 M139.3,320.7v-0.4c0-17.7-12.8-32.5-30.9-32.5c-18.6,0-30.3,14.5-30.3,32v0.4
	c0,17.6,12.8,32.2,30.7,32.2C127.4,352.6,139.3,338,139.3,320.7 M220,372.3h-1.1c-6.4,0-10.5-4-13.2-10.1l-33.6-76.8
	c-0.6-1.7-1.3-3.7-1.3-5.7c0-5.7,5.1-11.1,11.5-11.1s9.5,3.7,11.5,8.4l25.9,66.8l26.4-67.2c1.7-4,4.8-8.1,10.9-8.1
	c6.4,0,11.2,4.8,11.2,11.1c0,2.1-0.7,4.4-1.3,5.5l-33.6,77.1C230.5,368.2,226.4,372.3,220,372.3 M276.6,320.7v-0.4
	c0-28.8,22.8-52.6,53.7-52.6c30.9,0,53.6,23.5,53.6,52.3v0.4c0,28.6-22.8,52.5-54,52.5C299.2,372.7,276.6,349.3,276.6,320.7
	 M360.9,320.7v-0.4c0-17.7-12.8-32.5-30.9-32.5c-18.6,0-30.3,14.5-30.3,32v0.4c0,17.6,12.8,32.2,30.8,32.2
	C349,352.6,360.9,338,360.9,320.7"/>
<path class="st1" d="M422.6,176.2c-25,0-45.3,20.3-45.3,45.3c0,9.5,2.9,18.7,8.5,26.4l1.2,1.7l23.6,33.4c0,0,2.9,4.8,9.2,4.8h5.7
	c6.2,0,9.2-4.8,9.2-4.8l23.6-33.4l1.2-1.7c5.6-7.8,8.6-16.9,8.6-26.4C467.9,196.4,447.6,176.2,422.6,176.2 M441.2,234.9l-1.2,1.7
	l-17.3,24.6l-17.5-24.6l-1.2-1.8c-2.8-4-4.4-8.6-4.4-13.4c0-12.7,10.2-22.9,22.9-23c0,0,0,0,0.1,0c12.7,0,22.9,10.2,23,22.9
	c0,0,0,0,0,0.1C445.5,226.2,444,231,441.2,234.9 M409.9,308.1c0-6.8,5.4-12.5,12.6-12.5c7.3,0,12.6,5.5,12.6,12.3v0.1
	c0,6.7-5.4,12.3-12.7,12.3C415.1,320.3,409.9,314.8,409.9,308.1"/>
</svg>
